<?xml version="1.0" encoding="UTF-8" ?>
<svg
  fill="none"
  xmlns="http://www.w3.org/2000/svg"
  viewBox="0 0 266 54"
  width="266"
  height="54"
>
  <title>Hacker Camp</title>
  <path d="M27 0l16.134 17.685L50.383 40.5 27 45.63 3.617 40.5l7.249-22.815L27 0z"
        fill="url(#paint0_linear)"/>
  <path d="M28.782 17.89l-2.785-4.776M25.982 17.89l2.792-4.776" stroke="#fff" stroke-width=".5"
        stroke-miterlimit="10" stroke-linecap="round" stroke-linejoin="round"/>
  <path d="M34.8 35.717h6.078l-13.5-20.62-13.492 20.62h5.878l5.138-7.845L27 31.073l2.376-3.641 5.423 8.285z"
        fill="#fff"/>
  <path
    d="M75.166 13.062H68.16v9.091h-4.255V.441h4.255v8.844h7.007V.44h4.255v21.73h-4.255v-9.109zM93.4 17.352h-6.495l-1.483 4.819h-4.254L88.176.44h4.254l6.99 21.73h-4.466l-1.553-4.82zm-5.507-3.407h4.66l-2.206-7.273h-.282l-2.172 7.273zM113.383 14.863h3.406v6.213c-.67.477-1.5.848-2.524 1.112a12.576 12.576 0 01-3.142.406c-1.359 0-2.665-.194-3.901-.6a8.403 8.403 0 01-3.248-1.96c-.935-.9-1.677-2.064-2.242-3.512-.565-1.447-.829-3.177-.829-5.225 0-2.136.317-3.919.953-5.348.635-1.43 1.447-2.595 2.436-3.478A8.801 8.801 0 01107.61.583 11.812 11.812 0 01111.211 0c1.236 0 2.295.106 3.142.318.865.212 1.571.441 2.136.706v6.46h-3.407v-3.53a12.166 12.166 0 00-1.994-.159c-.812 0-1.554.141-2.242.441-.688.3-1.306.76-1.818 1.377-.512.618-.918 1.395-1.218 2.348-.3.953-.441 2.048-.441 3.336 0 1.112.141 2.136.406 3.054a7.16 7.16 0 001.182 2.383 5.125 5.125 0 001.889 1.536c.741.37 1.589.547 2.542.547.688 0 1.341-.07 1.995-.194v-3.76zM126.18 13.098h-2.206v9.055h-4.255V.441h4.255v8.88h2.206l4.96-8.88h4.837l-6.108 10.486 6.884 11.244h-5.242l-5.331-9.073zM139.031.441h14.245v3.795h-9.991v5.066h9.214v3.796h-9.214v5.313h10.149v3.795h-14.403V.44zM157.406.653c.477-.088.989-.159 1.536-.23.547-.07 1.094-.123 1.641-.176.548-.035 1.077-.07 1.607-.088.529-.018.988-.035 1.43-.035 1.006 0 2.012.105 3 .3.989.194 1.871.53 2.63 1.006a5.582 5.582 0 011.872 1.924c.459.812.706 1.818.706 3.018 0 .883-.089 1.66-.265 2.313a7.001 7.001 0 01-.724 1.73c-.3.511-.688.935-1.13 1.288a9.371 9.371 0 01-1.447.971l5.243 9.497h-4.925l-4.378-8.508h-2.542v8.508h-4.254V.653zm6.514 3.266c-.442 0-.865.017-1.289.035-.424.018-.759.07-.971.124v6.301h1.677c1.183 0 2.136-.264 2.895-.812.741-.53 1.112-1.43 1.112-2.665 0-.936-.282-1.66-.865-2.189-.6-.547-1.447-.794-2.559-.794zM206.513 14.863h3.407v6.213c-.671.477-1.5.848-2.524 1.112a12.61 12.61 0 01-3.16.406c-1.359 0-2.665-.194-3.901-.6a8.41 8.41 0 01-3.248-1.96c-.935-.9-1.677-2.064-2.241-3.512-.565-1.447-.83-3.177-.83-5.225 0-2.136.318-3.919.953-5.348.636-1.43 1.448-2.595 2.436-3.478a8.813 8.813 0 013.319-1.888C201.942.212 203.142 0 204.325 0c1.235 0 2.294.106 3.159.318.865.212 1.571.441 2.136.706v6.46h-3.407v-3.53a12.166 12.166 0 00-1.994-.159c-.812 0-1.554.141-2.242.441a4.88 4.88 0 00-1.818 1.377c-.512.618-.918 1.395-1.218 2.348-.3.953-.442 2.048-.442 3.336 0 1.112.142 2.136.406 3.054a7.18 7.18 0 001.183 2.383 5.125 5.125 0 001.889 1.536c.741.37 1.589.547 2.542.547.688 0 1.341-.07 1.994-.194v-3.76zM223.777 17.352h-6.478l-1.483 4.819h-4.254L218.57.44h4.254l6.99 21.73h-4.466l-1.571-4.82zm-5.507-3.407h4.66l-2.207-7.273h-.282l-2.171 7.273zM243.106 10.591l.158-3.39h-.194l-3.477 5.685h-.741l-3.637-5.684h-.159l.195 3.036v11.915h-4.043V.441h4.307l3.725 6.02h.123l3.69-6.02h4.289v21.73h-4.254V10.59h.018zM250.872.653c.865-.159 1.819-.3 2.878-.388a36.988 36.988 0 013.124-.141c1.077 0 2.154.088 3.248.264 1.094.177 2.065.53 2.93 1.06.865.529 1.571 1.253 2.118 2.206.548.935.83 2.171.83 3.671 0 1.324-.247 2.454-.724 3.39a7.002 7.002 0 01-1.888 2.33c-.777.617-1.677 1.059-2.684 1.341a11.502 11.502 0 01-3.124.424h-.494c-.23 0-.459 0-.706-.018-.247-.018-.494-.018-.724-.053-.229-.017-.406-.035-.512-.07v7.484h-4.254V.653h-.018zm6.32 3.142c-.406 0-.812.018-1.183.053s-.671.07-.9.106v7.043c.088.018.212.035.371.07.158.018.335.036.529.054.194.017.371.017.547.017h.389c.565 0 1.112-.053 1.659-.159a3.993 3.993 0 001.465-.582 3.17 3.17 0 001.041-1.165c.265-.494.389-1.147.389-1.96 0-.688-.124-1.253-.371-1.694a3.347 3.347 0 00-.971-1.077c-.388-.282-.865-.459-1.377-.565a7.815 7.815 0 00-1.588-.14z"
    fill="#57595B"/>
  <path
    d="M63.904 42.329v-8.49h1.236v3.565h4.025v-3.566H70.4v8.491h-1.235v-3.866H65.14v3.866h-1.236zM74.62 36.557c.211-.106.423-.212.6-.283.194-.088.37-.158.564-.211.194-.053.388-.089.583-.124.194-.018.406-.035.653-.035.353 0 .67.035.97.106.3.07.548.212.76.388.212.176.37.424.494.706.124.3.177.653.177 1.095v4.13h-.989l-.141-.706h-.036c-.282.3-.582.512-.917.635a3.194 3.194 0 01-1.112.195c-.3 0-.583-.036-.848-.124a2.057 2.057 0 01-.67-.37 1.597 1.597 0 01-.442-.583 1.77 1.77 0 01-.159-.76c0-.67.265-1.164.795-1.517s1.218-.512 2.082-.512h1.219v-.547c0-.46-.124-.777-.353-.936-.23-.159-.548-.247-.954-.247-.23 0-.494.035-.794.123-.3.071-.653.23-1.024.442l-.459-.865zm3.6 2.842l-1.006.035c-.67.018-1.147.141-1.43.353-.282.212-.424.494-.424.794 0 .195.036.353.089.477.07.124.141.23.247.3.106.07.23.124.37.159.142.035.283.053.442.053.3 0 .6-.07.9-.212.3-.141.583-.37.812-.67v-1.29zM86.322 41.535a3.2 3.2 0 00.76-.089c.211-.07.423-.14.635-.247l.265.883c-.495.247-1.06.37-1.748.37-.459 0-.882-.07-1.288-.194a2.89 2.89 0 01-1.06-.617c-.3-.283-.53-.618-.706-1.024-.176-.406-.265-.883-.265-1.43 0-.512.089-.953.248-1.36.159-.405.388-.74.67-1.023a2.986 2.986 0 011.042-.653c.406-.159.847-.23 1.341-.23.283 0 .548.018.812.053.265.036.565.142.918.283l-.264.9a2.718 2.718 0 00-1.342-.353c-.653 0-1.183.212-1.589.618-.406.406-.6.988-.6 1.712 0 .459.07.847.194 1.147.124.3.3.548.495.742.211.176.44.317.706.406.23.07.494.106.776.106zM92.606 39.999v2.312h-1.165v-9.567h1.165v5.966l2.56-2.718h1.465l-2.595 2.665 2.718 3.672H95.36l-2.1-2.948-.654.618zM110.752 33.838v1.06h-2.665v7.449h-1.236v-7.45h-2.612v-1.059h6.513zM118.925 39.099c0 .53-.088 1.006-.247 1.43a2.936 2.936 0 01-.671 1.059 2.842 2.842 0 01-.988.653 3.5 3.5 0 01-1.236.23c-.441 0-.847-.071-1.218-.213a2.78 2.78 0 01-.971-.617 3.114 3.114 0 01-.653-1.007c-.159-.388-.229-.864-.229-1.376 0-.53.088-1.007.247-1.413a3.02 3.02 0 01.671-1.041 3.1 3.1 0 01.988-.653c.371-.141.794-.23 1.236-.23.441 0 .847.071 1.218.195.37.14.688.335.971.6.282.264.494.6.653 1.006.159.388.229.847.229 1.377zm-1.235.053c0-.424-.053-.777-.159-1.077-.106-.3-.247-.547-.424-.724a1.512 1.512 0 00-.6-.406 1.895 1.895 0 00-.689-.123c-.229 0-.458.035-.688.105-.229.071-.424.195-.6.371-.177.177-.3.424-.406.724-.106.3-.159.688-.159 1.147 0 .424.053.777.159 1.095.106.3.247.547.424.741.176.194.37.335.6.424.229.088.459.141.688.141.23 0 .459-.035.689-.106.229-.07.423-.212.6-.388.176-.177.3-.424.406-.724.106-.353.159-.741.159-1.2zM133.4 33.838v1.06h-2.666v7.449h-1.235v-7.45h-2.613v-1.059h6.514zM137.795 42.329h-1.183v-9.567h1.183v4.042c.3-.265.618-.477.988-.653.354-.177.76-.247 1.183-.247.353 0 .653.053.918.159.265.105.477.247.636.423.158.177.3.406.37.653.088.247.124.53.124.83v4.378h-1.183v-4.078c0-.494-.106-.83-.3-1.059-.194-.212-.494-.335-.9-.335-.3 0-.618.07-.918.23-.3.158-.618.37-.918.652v4.572zM151.422 39.293h-4.536v.053c0 .706.194 1.236.564 1.624.389.37.901.565 1.554.565.335 0 .653-.036.918-.089.264-.053.547-.14.865-.264l.247.882a4.02 4.02 0 01-.918.283c-.353.07-.741.106-1.147.106a4.38 4.38 0 01-1.289-.195 2.818 2.818 0 01-1.059-.582 2.76 2.76 0 01-.724-1.024c-.176-.406-.265-.9-.265-1.483 0-.494.071-.953.23-1.341a2.65 2.65 0 01.635-1.024c.265-.282.6-.512.971-.653.388-.159.812-.23 1.289-.23.406 0 .776.071 1.094.195.335.14.6.317.847.564.23.248.406.53.548.883.123.335.194.724.194 1.13v.6h-.018zm-1.218-.847c0-.23-.035-.46-.088-.654a1.49 1.49 0 00-.265-.53 1.324 1.324 0 00-.459-.37 1.647 1.647 0 00-.688-.141c-.495 0-.901.159-1.201.477-.317.317-.494.723-.582 1.235l3.283-.017zM165.296 33.838v1.024h-3.759v2.736h3.459v1.006h-3.459v3.707h-1.236v-8.49h4.995v.017zM172.693 35.992h1.182v6.337h-.935l-.159-.794h-.053c-.23.264-.53.476-.865.653a2.611 2.611 0 01-1.2.265c-.653 0-1.183-.195-1.607-.565-.406-.371-.617-.936-.617-1.695v-4.201h1.182v4.06c0 .265.035.494.106.688.071.194.159.336.265.46.106.105.247.194.406.246.159.053.318.071.494.071.353 0 .689-.07.971-.23.282-.158.565-.37.83-.635v-4.66zM181.201 36.874h-1.854v3.69c0 .317.071.53.23.635.159.106.37.159.618.159a3.758 3.758 0 001.165-.194l.194.9a3.7 3.7 0 01-.689.194 4.658 4.658 0 01-.882.088c-.636 0-1.095-.14-1.377-.405-.282-.265-.441-.671-.441-1.2v-3.849h-.936v-.883h.936v-2.03h1.182v2.03h1.854v.865zM189.179 35.992h1.183v6.337h-.935l-.159-.794h-.053c-.23.264-.53.476-.865.653a2.616 2.616 0 01-1.201.265c-.653 0-1.182-.195-1.606-.565-.406-.371-.618-.936-.618-1.695v-4.201h1.183v4.06c0 .265.035.494.106.688.07.194.159.336.265.46.106.105.247.194.406.246.159.053.317.071.494.071.353 0 .688-.07.971-.23.282-.158.565-.37.829-.635v-4.66zM194.334 42.329v-6.337h.882l.194 1.27c.159-.405.406-.74.759-.988.354-.247.76-.37 1.218-.37.23 0 .424.017.583.053.159.035.3.088.424.14l-.23 1.042a2.088 2.088 0 00-.353-.14 1.961 1.961 0 00-1.183.088c-.211.088-.406.229-.582.405-.159.177-.3.406-.388.671a2.844 2.844 0 00-.142.918v3.283h-1.182v-.035zM206.602 39.293h-4.554v.053c0 .706.194 1.236.582 1.624.388.37.9.565 1.553.565.336 0 .654-.036.918-.089.265-.053.547-.14.865-.264l.247.882a4.005 4.005 0 01-.918.283c-.353.07-.741.106-1.147.106-.459 0-.882-.071-1.288-.195a2.822 2.822 0 01-1.06-.582c-.3-.265-.547-.6-.723-1.024-.177-.424-.265-.9-.265-1.483 0-.494.071-.953.229-1.341.142-.406.353-.742.636-1.024.265-.282.6-.512.971-.653.388-.159.812-.23 1.288-.23.406 0 .777.071 1.095.195.335.14.618.317.847.564.229.248.406.53.547.883.124.335.194.724.194 1.13v.6h-.017zm-1.218-.847c0-.23-.036-.46-.089-.654a1.487 1.487 0 00-.264-.53 1.342 1.342 0 00-.459-.37 1.652 1.652 0 00-.689-.141c-.494 0-.9.159-1.2.477-.318.317-.494.723-.565 1.235l3.266-.017z"
    fill="#818386"/>
  <defs>
    <linearGradient id="paint0_linear" x1="-3.068" y1="42.955" x2="79.759" y2="27.005"
                    gradientUnits="userSpaceOnUse">
      <stop stop-color="#EE771B"/>
      <stop offset=".427" stop-color="#E62271"/>
      <stop offset=".789" stop-color="#684997"/>
      <stop offset="1" stop-color="#3E7ABC"/>
    </linearGradient>
  </defs>
</svg>

