<?xml version="1.0" standalone="no"?>
<!DOCTYPE svg PUBLIC "-//W3C//DTD SVG 20010904//EN"
 "http://www.w3.org/TR/2001/REC-SVG-20010904/DTD/svg10.dtd">
<svg version="1.0" xmlns="http://www.w3.org/2000/svg"
 width="200.000000pt" height="200.000000pt" viewBox="0 0 200.000000 200.000000"
 preserveAspectRatio="xMidYMid meet">
<metadata>
Created by potrace 1.11, written by Peter Selinger 2001-2013
</metadata>
<g transform="translate(0.000000,200.000000) scale(0.100000,-0.100000)"
fill="#000000" stroke="none">
<path d="M1030 1670 c0 -19 3 -21 12 -12 9 9 9 15 0 24 -9 9 -12 7 -12 -12z"/>
<path d="M977 1643 c-4 -3 -7 -15 -7 -25 0 -28 -30 -82 -115 -207 -41 -62 -75
-115 -75 -118 0 -3 -24 -42 -53 -87 -82 -124 -133 -206 -168 -266 -32 -54
-123 -199 -160 -252 -11 -15 -19 -29 -19 -32 0 -3 -25 -42 -55 -87 -31 -44
-67 -102 -81 -128 -14 -25 -39 -64 -55 -86 -84 -115 -79 -124 62 -124 60 0
120 -3 133 -7 14 -3 41 -1 61 6 36 12 39 15 160 195 29 44 63 94 75 110 12 17
41 61 66 100 24 38 55 75 69 82 23 13 26 11 80 -72 61 -93 82 -105 112 -57 50
81 88 139 100 154 22 25 48 10 87 -52 19 -30 48 -75 65 -100 17 -25 49 -72 70
-105 36 -56 52 -81 93 -144 10 -14 25 -39 34 -56 9 -16 27 -40 40 -52 23 -21
29 -21 201 -16 98 3 180 7 182 9 10 9 -16 61 -81 161 -40 62 -91 140 -112 175
-58 92 -165 258 -301 464 -168 256 -256 389 -287 437 -48 74 -78 136 -78 162
0 18 -5 25 -18 25 -10 0 -22 -3 -25 -7z"/>
</g>
</svg>
